<svg class="import" width="14" height="15" viewBox="0 0 14 15" fill="none" xmlns="http://www.w3.org/2000/svg">
<path class="import-path" d="M7.875 1.375C7.875 0.891016 7.48398 0.5 7 0.5C6.51602 0.5 6.125 0.891016 6.125 1.375V8.01133L4.11797 6.0043C3.77617 5.6625 3.22109 5.6625 2.8793 6.0043C2.5375 6.34609 2.5375 6.90117 2.8793 7.24297L6.3793 10.743C6.72109 11.0848 7.27617 11.0848 7.61797 10.743L11.118 7.24297C11.4598 6.90117 11.4598 6.34609 11.118 6.0043C10.7762 5.6625 10.2211 5.6625 9.8793 6.0043L7.875 8.01133V1.375ZM1.75 10.125C0.784766 10.125 0 10.9098 0 11.875V12.75C0 13.7152 0.784766 14.5 1.75 14.5H12.25C13.2152 14.5 14 13.7152 14 12.75V11.875C14 10.9098 13.2152 10.125 12.25 10.125H9.47461L8.23594 11.3637C7.55234 12.0473 6.44492 12.0473 5.76133 11.3637L4.52539 10.125H1.75ZM11.8125 11.6562C11.9865 11.6562 12.1535 11.7254 12.2765 11.8485C12.3996 11.9715 12.4688 12.1385 12.4688 12.3125C12.4688 12.4865 12.3996 12.6535 12.2765 12.7765C12.1535 12.8996 11.9865 12.9688 11.8125 12.9688C11.6385 12.9688 11.4715 12.8996 11.3485 12.7765C11.2254 12.6535 11.1562 12.4865 11.1562 12.3125C11.1562 12.1385 11.2254 11.9715 11.3485 11.8485C11.4715 11.7254 11.6385 11.6562 11.8125 11.6562Z" fill="white"/>
</svg>
