<svg width="18" height="18" viewBox="0 0 18 18" fill="none" xmlns="http://www.w3.org/2000/svg">
<path d="M0 5C0 3.89687 0.896875 3 2 3C2.01562 3 2.03437 3 2.05 3C2.28125 1.85938 3.29063 1 4.5 1C4.96875 1 5.40625 1.12812 5.77812 1.35C6.19375 0.55 7.03438 0 8 0C8.96562 0 9.80625 0.55 10.2219 1.35C10.5938 1.12812 11.0312 1 11.5 1C12.7094 1 13.7188 1.85938 13.95 3C13.9656 3 13.9844 3 14 3C15.1031 3 16 3.89687 16 5C16 5.36562 15.9031 5.70625 15.7312 6H0.26875C0.096875 5.70625 0 5.36562 0 5ZM0 7.85625C0 7.38437 0.384375 7 0.85625 7H15.1438C15.6156 7 16 7.38437 16 7.85625C16 10.0594 14.6125 11.9406 12.6656 12.6719L12.6094 13.125C12.5469 13.625 12.1219 14 11.6156 14H4.38125C3.87812 14 3.45 13.625 3.3875 13.125L3.33125 12.675C1.3875 11.9406 0 10.0594 0 7.85625Z" fill="white"/>
</svg>
