<svg width="14" height="19" viewBox="0 0 14 19" fill="none" xmlns="http://www.w3.org/2000/svg">
<g id="xmark-solid 1">
<path id="Vector" d="M12.4906 5.49061C12.9464 5.03488 12.9464 4.29478 12.4906 3.83905C12.0349 3.38332 11.2948 3.38332 10.8391 3.83905L7 7.68176L3.15729 3.8427C2.70156 3.38697 1.96146 3.38697 1.50573 3.8427C1.05 4.29843 1.05 5.03853 1.50573 5.49426L5.34844 9.33332L1.50938 13.176C1.05365 13.6318 1.05365 14.3719 1.50938 14.8276C1.9651 15.2833 2.70521 15.2833 3.16094 14.8276L7 10.9849L10.8427 14.8239C11.2984 15.2797 12.0385 15.2797 12.4943 14.8239C12.95 14.3682 12.95 13.6281 12.4943 13.1724L8.65156 9.33332L12.4906 5.49061Z" fill="black"/>
</g>
</svg>
