<svg width="12" height="14" viewBox="0 0 12 14" fill="none" xmlns="http://www.w3.org/2000/svg">
<g clip-path="url(#clip0_460_615)">
<path d="M3.62143 0.473272L3.42857 0.855634H0.857143C0.383036 0.855634 0 1.238 0 1.71127C0 2.18454 0.383036 2.5669 0.857143 2.5669H11.1429C11.617 2.5669 12 2.18454 12 1.71127C12 1.238 11.617 0.855634 11.1429 0.855634H8.57143L8.37857 0.473272C8.23393 0.181822 7.93661 0 7.6125 0H4.3875C4.06339 0 3.76607 0.181822 3.62143 0.473272ZM11.1429 3.42254H0.857143L1.425 12.4869C1.46786 13.1634 2.03036 13.6901 2.70804 13.6901H9.29196C9.96964 13.6901 10.5321 13.1634 10.575 12.4869L11.1429 3.42254Z" fill="white"/>
</g>
<defs>
<clipPath id="clip0_460_615">
<rect width="12" height="13.6901" fill="white"/>
</clipPath>
</defs>
</svg>
