<svg width="16" height="19" viewBox="0 0 16 19" fill="none" xmlns="http://www.w3.org/2000/svg">
<g clip-path="url(#clip0_463_615)">
<path d="M13.0072 2.99286C12.1357 2.12143 10.7215 2.12143 9.85002 2.99286L3.2786 9.56429C1.77502 11.0679 1.77502 13.5036 3.2786 15.0071C4.78217 16.5107 7.21788 16.5107 8.72145 15.0071L14.15 9.57857C14.5393 9.18929 15.175 9.18929 15.5643 9.57857C15.9536 9.96786 15.9536 10.6036 15.5643 10.9929L10.1357 16.4214C7.85002 18.7071 4.15002 18.7071 1.86431 16.4214C-0.421404 14.1357 -0.421404 10.4357 1.86431 8.15L8.43574 1.57857C10.0893 -0.0749987 12.7679 -0.0749987 14.4215 1.57857C16.075 3.23214 16.075 5.91072 14.4215 7.56429L8.13574 13.85C7.11431 14.8714 5.45717 14.8714 4.43574 13.85C3.41431 12.8286 3.41431 11.1714 4.43574 10.15L9.5786 5.00714C9.96788 4.61786 10.6036 4.61786 10.9929 5.00714C11.3822 5.39643 11.3822 6.03214 10.9929 6.42143L5.85002 11.5643C5.61074 11.8036 5.61074 12.1964 5.85002 12.4357C6.08931 12.675 6.48217 12.675 6.72145 12.4357L13.0072 6.15C13.8786 5.27857 13.8786 3.86429 13.0072 2.99286Z" fill="white"/>
</g>
<defs>
<clipPath id="clip0_463_615">
<rect width="16" height="18.2857" fill="white"/>
</clipPath>
</defs>
</svg>
