<svg width="16" height="16" viewBox="0 0 16 16" fill="none" xmlns="http://www.w3.org/2000/svg">
<g clip-path="url(#clip0_463_617)">
<path d="M15.5656 0.174999C15.8813 0.393749 16.0469 0.771874 15.9875 1.15L13.9875 14.15C13.9406 14.4531 13.7563 14.7187 13.4875 14.8687C13.2188 15.0187 12.8969 15.0375 12.6125 14.9187L8.87502 13.3656L6.7344 15.6812C6.45627 15.9844 6.01877 16.0844 5.6344 15.9344C5.25002 15.7844 5.00002 15.4125 5.00002 15V12.3875C5.00002 12.2625 5.0469 12.1437 5.13127 12.0531L10.3688 6.3375C10.55 6.14062 10.5438 5.8375 10.3563 5.65C10.1688 5.4625 9.86564 5.45 9.66877 5.62812L3.31252 11.275L0.553145 9.89375C0.221895 9.72812 0.00939531 9.39687 2.031e-05 9.02812C-0.00935469 8.65937 0.184395 8.31562 0.503145 8.13125L14.5031 0.131249C14.8375 -0.0593757 15.25 -0.0406257 15.5656 0.174999Z" fill="white"/>
</g>
<defs>
<clipPath id="clip0_463_617">
<rect width="16" height="16" fill="white"/>
</clipPath>
</defs>
</svg>
