<svg width="10" height="14" viewBox="0 0 10 14" fill="none" xmlns="http://www.w3.org/2000/svg">
<path d="M8.92189 3.92188C9.24741 3.59635 9.24741 3.06771 8.92189 2.74219C8.59636 2.41667 8.06772 2.41667 7.7422 2.74219L5.00001 5.48698L2.25522 2.74479C1.9297 2.41927 1.40105 2.41927 1.07553 2.74479C0.75001 3.07031 0.75001 3.59896 1.07553 3.92448L3.82032 6.66667L1.07814 9.41146C0.752614 9.73698 0.752614 10.2656 1.07814 10.5911C1.40366 10.9167 1.9323 10.9167 2.25782 10.5911L5.00001 7.84635L7.7448 10.5885C8.07032 10.9141 8.59897 10.9141 8.92449 10.5885C9.25001 10.263 9.25001 9.73438 8.92449 9.40885L6.1797 6.66667L8.92189 3.92188Z" fill="white"/>
</svg>
